<svg width="602" height="504" viewBox="0 0 602 504" fill="none" xmlns="http://www.w3.org/2000/svg">
<g opacity="0.67">
<path d="M49.0171 49.2114V502.855" stroke="#F76363" stroke-width="6" stroke-miterlimit="10"/>
<path d="M685.246 2H503.732V319.139H685.246V2Z" stroke="#F76363" stroke-width="4" stroke-miterlimit="10"/>
<path d="M213.251 488.594V375.176L249.236 370.505V487.003" stroke="#F76363" stroke-width="4" stroke-miterlimit="10"/>
<path d="M208.748 258.274C219.928 258.274 228.993 249.217 228.993 238.044C228.993 226.871 219.928 217.814 208.748 217.814C197.566 217.814 188.503 226.871 188.503 238.044C188.503 249.217 197.566 258.274 208.748 258.274Z" fill="#A10606" stroke="#F76363"/>
<path d="M230.279 179.169C232.067 168.109 224.544 157.692 213.475 155.905C202.406 154.117 191.982 161.634 190.194 172.696C188.405 183.757 195.928 194.172 206.997 195.96C218.066 197.748 228.489 190.23 230.279 179.169Z" fill="#A10606" stroke="#F76363"/>
<path d="M130.009 123.403H78.2588V345.956H130.009V123.403Z" stroke="#F76363" stroke-width="4" stroke-miterlimit="10"/>
<path d="M208.748 318.988C219.928 318.988 228.993 309.93 228.993 298.758C228.993 287.586 219.928 278.528 208.748 278.528C197.566 278.528 188.503 287.586 188.503 298.758C188.503 309.93 197.566 318.988 208.748 318.988Z" fill="#A10606" stroke="#F76363"/>
<path d="M208.748 132.381C219.928 132.381 228.993 123.324 228.993 112.151C228.993 100.979 219.928 91.9214 208.748 91.9214C197.566 91.9214 188.503 100.979 188.503 112.151C188.503 123.324 197.566 132.381 208.748 132.381Z" fill="#A10606" stroke="#F76363"/>
<path d="M161.502 66.8721V490.489" stroke="#F76363" stroke-width="4" stroke-miterlimit="10"/>
<path d="M249.249 76.1924L248.797 360.949" stroke="#F76363" stroke-width="4" stroke-miterlimit="10"/>
<path d="M2.61523 33.9351C4.1085 35.9654 7.16848 38.0324 11.685 40.0504C56.7277 60.843 247.449 83.8004 501.365 88.0934" stroke="#F76363" stroke-width="4" stroke-miterlimit="10"/>
<path d="M4.87988 4.71533C21.3792 26.8533 223.203 54.0303 501.365 58.8736" stroke="#F76363" stroke-width="4" stroke-miterlimit="10"/>
<path d="M14.6107 39.4999L1 34.9989L3.27661 5.7793L14.6107 12.5186V39.4999Z" fill="#A10606" stroke="#F76363"/>
</g>
</svg>
