<svg width="49" height="48" viewBox="0 0 49 48" fill="none" xmlns="http://www.w3.org/2000/svg">
<path d="M27.5895 16.9092H29.5085V13.6803C28.5793 13.5842 27.6458 13.5367 26.7116 13.5381C23.9352 13.5381 22.0366 15.2237 22.0366 18.3104V20.9707H18.9028V24.5855H22.0366V33.8458H25.7929V24.5855H28.9164L29.386 20.9707H25.7929V18.6658C25.7929 17.5996 26.0787 16.9092 27.5895 16.9092Z" fill="#F1413E"/>
<path d="M47.5977 24C47.5977 36.6976 37.2484 47 24.4707 47C11.6931 47 1.34375 36.6976 1.34375 24C1.34375 11.3024 11.6931 1 24.4707 1C37.2484 1 47.5977 11.3024 47.5977 24Z" stroke="#F1413E" stroke-width="2"/>
</svg>
