<svg width="21" height="20" viewBox="0 0 21 20" fill="none" xmlns="http://www.w3.org/2000/svg">
<ellipse cx="10.1667" cy="9.90276" rx="10.1667" ry="9.21429" fill="white"/>
<mask id="mask0_8_371" style="mask-type:luminance" maskUnits="userSpaceOnUse" x="2" y="2" width="16" height="15">
<rect x="2.54199" y="2.99219" width="15.25" height="13.8214" fill="white"/>
</mask>
<g mask="url(#mask0_8_371)">
<path fill-rule="evenodd" clip-rule="evenodd" d="M16.3982 8.77509H15.8864V8.75119H10.1676V11.0548H13.7587C13.2348 12.3957 11.827 13.3583 10.1676 13.3583C8.06219 13.3583 6.35514 11.8112 6.35514 9.90297C6.35514 7.99475 8.06219 6.44761 10.1676 6.44761C11.1395 6.44761 12.0237 6.7799 12.6969 7.32268L14.4942 5.69377C13.3593 4.7352 11.8413 4.14404 10.1676 4.14404C6.65855 4.14404 3.81348 6.7226 3.81348 9.90297C3.81348 13.0833 6.65855 15.6619 10.1676 15.6619C13.6767 15.6619 16.5218 13.0833 16.5218 9.90297C16.5218 9.51684 16.478 9.13991 16.3982 8.77509Z" fill="#FFC107"/>
<path fill-rule="evenodd" clip-rule="evenodd" d="M4.5459 7.22248L6.63356 8.61009C7.19845 7.34255 8.5665 6.44761 10.1674 6.44761C11.1393 6.44761 12.0235 6.7799 12.6967 7.32268L14.494 5.69377C13.3591 4.7352 11.8411 4.14404 10.1674 4.14404C7.72679 4.14404 5.61022 5.39287 4.5459 7.22248Z" fill="#FF3D00"/>
<path fill-rule="evenodd" clip-rule="evenodd" d="M10.1675 15.6619C11.8088 15.6619 13.3001 15.0926 14.4277 14.1669L12.4611 12.6586C11.8231 13.0966 11.0301 13.3583 10.1675 13.3583C8.51482 13.3583 7.1115 12.4032 6.58284 11.0703L4.51074 12.5172C5.56236 14.3823 7.69799 15.6619 10.1675 15.6619Z" fill="#4CAF50"/>
<path fill-rule="evenodd" clip-rule="evenodd" d="M16.3976 8.77439H15.8857V8.75049H10.167V11.0541H13.758C13.5064 11.6982 13.0492 12.2536 12.4596 12.6582C12.4599 12.6579 12.4602 12.6579 12.4605 12.6576L14.4271 14.1659C14.288 14.2805 16.5212 12.7817 16.5212 9.90227C16.5212 9.51614 16.4773 9.13922 16.3976 8.77439Z" fill="#1976D2"/>
</g>
</svg>
