<svg width="49" height="48" viewBox="0 0 49 48" fill="none" xmlns="http://www.w3.org/2000/svg">
<path d="M47.3013 24C47.3013 36.6976 36.952 47 24.1743 47C11.3967 47 1.04736 36.6976 1.04736 24C1.04736 11.3024 11.3967 1 24.1743 1C36.952 1 47.3013 11.3024 47.3013 24Z" stroke="#F1413E" stroke-width="2"/>
<path d="M21.0815 23.6919C21.0815 21.8227 22.6044 20.307 24.4834 20.307C26.3625 20.307 27.8862 21.8227 27.8862 23.6919C27.8862 25.5611 26.3625 27.0768 24.4834 27.0768C22.6044 27.0768 21.0815 25.5611 21.0815 23.6919ZM19.242 23.6919C19.242 26.5716 21.5886 28.9058 24.4834 28.9058C27.3783 28.9058 29.7249 26.5716 29.7249 23.6919C29.7249 20.8123 27.3783 18.478 24.4834 18.478C21.5886 18.478 19.242 20.8123 19.242 23.6919ZM28.7075 18.2714C28.7075 18.9439 29.2558 19.4901 29.9327 19.4901C30.6088 19.4901 31.1579 18.9439 31.1579 18.2714C31.1579 17.5988 30.6096 17.0534 29.9327 17.0534C29.2558 17.0534 28.7075 17.5988 28.7075 18.2714ZM20.3592 31.9569C19.364 31.9118 18.8231 31.7469 18.4636 31.6075C17.987 31.423 17.6473 31.2032 17.2895 30.848C16.9325 30.4929 16.7107 30.155 16.526 29.6809C16.3858 29.3233 16.2201 28.7853 16.1748 27.7953C16.1253 26.725 16.1154 26.4035 16.1154 23.6919C16.1154 20.9804 16.1261 20.6597 16.1748 19.5886C16.2201 18.5986 16.3867 18.0614 16.526 17.703C16.7115 17.2289 16.9325 16.891 17.2895 16.535C17.6465 16.1799 17.9862 15.9593 18.4636 15.7755C18.8231 15.6361 19.364 15.4713 20.3592 15.4261C21.4352 15.3769 21.7584 15.3671 24.4834 15.3671C27.2093 15.3671 27.5317 15.3778 28.6085 15.4261C29.6037 15.4713 30.1438 15.6369 30.5041 15.7755C30.9807 15.9593 31.3204 16.1799 31.6782 16.535C32.0352 16.8902 32.2562 17.2289 32.4417 17.703C32.5819 18.0606 32.7476 18.5986 32.793 19.5886C32.8424 20.6597 32.8523 20.9804 32.8523 23.6919C32.8523 26.4026 32.8424 26.7241 32.793 27.7953C32.7476 28.7853 32.5811 29.3233 32.4417 29.6809C32.2562 30.155 32.0352 30.4929 31.6782 30.848C31.3212 31.2032 30.9807 31.423 30.5041 31.6075C30.1446 31.7469 29.6037 31.9118 28.6085 31.9569C27.5325 32.0061 27.2093 32.016 24.4834 32.016C21.7584 32.016 21.4352 32.0061 20.3592 31.9569ZM20.2751 13.5996C19.1884 13.6488 18.4463 13.8202 17.7974 14.0712C17.1262 14.3304 16.5573 14.6781 15.9892 15.2424C15.422 15.8067 15.0724 16.3726 14.8118 17.0411C14.5595 17.6866 14.3872 18.4247 14.3377 19.5057C14.2874 20.5884 14.2759 20.9345 14.2759 23.6919C14.2759 26.4494 14.2874 26.7955 14.3377 27.8781C14.3872 28.9591 14.5595 29.6973 14.8118 30.3428C15.0724 31.0104 15.4211 31.5772 15.9892 32.1414C16.5565 32.7057 17.1254 33.0527 17.7974 33.3127C18.4471 33.5636 19.1884 33.7351 20.2751 33.7843C21.3643 33.8335 21.7114 33.8458 24.4834 33.8458C27.2563 33.8458 27.6034 33.8343 28.6918 33.7843C29.7785 33.7351 30.5206 33.5636 31.1695 33.3127C31.8406 33.0527 32.4096 32.7057 32.9777 32.1414C33.5449 31.5772 33.8937 31.0104 34.1551 30.3428C34.4074 29.6973 34.5805 28.9591 34.6292 27.8781C34.6787 26.7947 34.6902 26.4494 34.6902 23.6919C34.6902 20.9345 34.6787 20.5884 34.6292 19.5057C34.5797 18.4247 34.4074 17.6866 34.1551 17.0411C33.8937 16.3735 33.5449 15.8075 32.9777 15.2424C32.4104 14.6781 31.8407 14.3304 31.1703 14.0712C30.5206 13.8202 29.7785 13.648 28.6926 13.5996C27.6043 13.5504 27.2563 13.5381 24.4843 13.5381C21.7114 13.5381 21.3643 13.5496 20.2751 13.5996Z" fill="#F1413E"/>
</svg>
