<svg width="47" height="46" viewBox="0 0 47 46" fill="none" xmlns="http://www.w3.org/2000/svg">
<circle cx="23.238" cy="22.9524" r="21.9048" stroke="#EAF2EF" stroke-width="1.90476"/>
<path d="M20.3078 22.6596C20.3078 20.8794 21.7505 19.4359 23.5307 19.4359C25.3109 19.4359 26.7544 20.8794 26.7544 22.6596C26.7544 24.4398 25.3109 25.8833 23.5307 25.8833C21.7505 25.8833 20.3078 24.4398 20.3078 22.6596ZM18.5651 22.6596C18.5651 25.4021 20.7882 27.6252 23.5307 27.6252C26.2732 27.6252 28.4963 25.4021 28.4963 22.6596C28.4963 19.9171 26.2732 17.694 23.5307 17.694C20.7882 17.694 18.5651 19.9171 18.5651 22.6596ZM27.5324 17.4971C27.5324 18.1377 28.0518 18.6579 28.6931 18.6579C29.3337 18.6579 29.8539 18.1377 29.8539 17.4971C29.8539 16.8566 29.3344 16.3372 28.6931 16.3372C28.0518 16.3372 27.5324 16.8566 27.5324 17.4971ZM19.6235 30.531C18.6807 30.488 18.1683 30.331 17.8277 30.1982C17.3762 30.0225 17.0544 29.8131 16.7154 29.4749C16.3771 29.1367 16.167 28.8149 15.992 28.3634C15.8593 28.0228 15.7022 27.5104 15.6593 26.5676C15.6124 25.5482 15.603 25.242 15.603 22.6596C15.603 20.0772 15.6132 19.7718 15.6593 18.7516C15.7022 17.8088 15.86 17.2972 15.992 16.9558C16.1678 16.5043 16.3771 16.1825 16.7154 15.8435C17.0536 15.5053 17.3754 15.2951 17.8277 15.1202C18.1683 14.9874 18.6807 14.8304 19.6235 14.7874C20.6429 14.7405 20.9491 14.7312 23.5307 14.7312C26.1131 14.7312 26.4185 14.7413 27.4387 14.7874C28.3815 14.8304 28.8931 14.9882 29.2345 15.1202C29.6859 15.2951 30.0078 15.5053 30.3468 15.8435C30.685 16.1817 30.8943 16.5043 31.0701 16.9558C31.2029 17.2964 31.3599 17.8088 31.4029 18.7516C31.4497 19.7718 31.4591 20.0772 31.4591 22.6596C31.4591 25.2412 31.4497 25.5474 31.4029 26.5676C31.3599 27.5104 31.2021 28.0228 31.0701 28.3634C30.8943 28.8149 30.685 29.1367 30.3468 29.4749C30.0086 29.8131 29.6859 30.0225 29.2345 30.1982C28.8939 30.331 28.3815 30.488 27.4387 30.531C26.4193 30.5779 26.1131 30.5872 23.5307 30.5872C20.9491 30.5872 20.6429 30.5779 19.6235 30.531ZM19.5438 13.0478C18.5143 13.0947 17.8113 13.258 17.1965 13.497C16.5607 13.7438 16.0217 14.075 15.4835 14.6124C14.9461 15.1498 14.6149 15.6888 14.3681 16.3254C14.1291 16.9402 13.9658 17.6432 13.9189 18.6727C13.8713 19.7038 13.8604 20.0334 13.8604 22.6596C13.8604 25.2857 13.8713 25.6154 13.9189 26.6464C13.9658 27.676 14.1291 28.379 14.3681 28.9937C14.6149 29.6296 14.9453 30.1693 15.4835 30.7067C16.0209 31.2442 16.5599 31.5746 17.1965 31.8222C17.8121 32.0612 18.5143 32.2245 19.5438 32.2713C20.5757 32.3182 20.9045 32.3299 23.5307 32.3299C26.1576 32.3299 26.4865 32.319 27.5175 32.2713C28.5471 32.2245 29.2501 32.0612 29.8648 31.8222C30.5007 31.5746 31.0396 31.2442 31.5778 30.7067C32.1152 30.1693 32.4457 29.6296 32.6933 28.9937C32.9323 28.379 33.0963 27.676 33.1424 26.6464C33.1893 25.6146 33.2002 25.2857 33.2002 22.6596C33.2002 20.0334 33.1893 19.7038 33.1424 18.6727C33.0956 17.6432 32.9323 16.9402 32.6933 16.3254C32.4457 15.6896 32.1152 15.1506 31.5778 14.6124C31.0404 14.075 30.5007 13.7438 29.8656 13.497C29.2501 13.258 28.5471 13.0939 27.5183 13.0478C26.4872 13.001 26.1576 12.9893 23.5315 12.9893C20.9045 12.9893 20.5757 13.0002 19.5438 13.0478Z" fill="#EAF2EF"/>
</svg>
