<svg width="356" height="101" viewBox="0 0 356 101" fill="none" xmlns="http://www.w3.org/2000/svg">
<path d="M326.5 59C342.792 59 356 45.7924 356 29.5C356 13.2076 342.792 0 326.5 0C310.208 0 297 13.2076 297 29.5C297 45.7924 310.208 59 326.5 59Z" fill="url(#paint0_linear_349_98)"/>
<path d="M36.12 29.3C40.56 29.3 44.44 30.16 47.76 31.88C51.12 33.56 53.7 36 55.5 39.2C57.34 42.36 58.26 46.06 58.26 50.3C58.26 54.54 57.34 58.22 55.5 61.34C53.7 64.46 51.12 66.86 47.76 68.54C44.44 70.18 40.56 71 36.12 71H22.5V29.3H36.12ZM36.12 65.42C41 65.42 44.74 64.1 47.34 61.46C49.94 58.82 51.24 55.1 51.24 50.3C51.24 45.46 49.94 41.68 47.34 38.96C44.74 36.24 41 34.88 36.12 34.88H29.34V65.42H36.12ZM71.6391 65.06H91.0191V71H63.5391V65.66L82.8591 35.24H63.5391V29.3H91.0191V34.64L71.6391 65.06ZM123.876 46.4V52.16H99.2161V46.4H123.876ZM156.574 71L140.434 52.34V71H133.594V29.3H140.434V48.32L156.634 29.3H165.214L147.094 50.18L165.514 71H156.574ZM178.403 29.3V71H171.563V29.3H178.403ZM214.323 29.3V34.88H203.223V71H196.383V34.88H185.223V29.3H214.323ZM246.39 62.48H228.93L225.93 71H218.79L233.73 29.24H241.65L256.59 71H249.39L246.39 62.48ZM244.47 56.9L237.69 37.52L230.85 56.9H244.47ZM285.406 49.58C287.646 49.98 289.546 51.16 291.106 53.12C292.666 55.08 293.446 57.3 293.446 59.78C293.446 61.9 292.886 63.82 291.766 65.54C290.686 67.22 289.106 68.56 287.026 69.56C284.946 70.52 282.526 71 279.766 71H263.086V29.3H278.986C281.826 29.3 284.266 29.78 286.306 30.74C288.346 31.7 289.886 33 290.926 34.64C291.966 36.24 292.486 38.04 292.486 40.04C292.486 42.44 291.846 44.44 290.566 46.04C289.286 47.64 287.566 48.82 285.406 49.58ZM269.926 46.82H278.386C280.626 46.82 282.366 46.32 283.606 45.32C284.886 44.28 285.526 42.8 285.526 40.88C285.526 39 284.886 37.54 283.606 36.5C282.366 35.42 280.626 34.88 278.386 34.88H269.926V46.82ZM279.166 65.42C281.486 65.42 283.306 64.86 284.626 63.74C285.946 62.62 286.606 61.06 286.606 59.06C286.606 57.02 285.906 55.4 284.506 54.2C283.106 53 281.246 52.4 278.926 52.4H269.926V65.42H279.166Z" fill="white"/>
<defs>
<linearGradient id="paint0_linear_349_98" x1="302.5" y1="35.5" x2="396.5" y2="19.5" gradientUnits="userSpaceOnUse">
<stop stop-color="#5F3EF1"/>
<stop offset="1" stop-color="#AFAFED" stop-opacity="0"/>
</linearGradient>
</defs>
</svg>
