<svg width="49" height="48" viewBox="0 0 49 48" fill="none" xmlns="http://www.w3.org/2000/svg">
<path d="M47.9522 24C47.9522 36.6976 37.6029 47 24.8252 47C12.0476 47 1.69824 36.6976 1.69824 24C1.69824 11.3024 12.0476 1 24.8252 1C37.6029 1 47.9522 11.3024 47.9522 24Z" stroke="#F1413E" stroke-width="2"/>
<path d="M14.3081 15.8971C14.3081 15.2133 14.5487 14.6492 15.0299 14.2048C15.511 13.7603 16.1365 13.5381 16.9064 13.5381C17.6625 13.5381 18.2743 13.7569 18.7417 14.1945C19.2229 14.6458 19.4634 15.2338 19.4634 15.9586C19.4634 16.615 19.2297 17.162 18.7623 17.5996C18.2812 18.0509 17.6488 18.2765 16.8652 18.2765H16.8445C16.0884 18.2765 15.4767 18.0509 15.0092 17.5996C14.5418 17.1483 14.3081 16.5808 14.3081 15.8971ZM14.5762 33.8458V20.1432H19.1541V33.8458H14.5762ZM21.6906 33.8458H26.2685V26.1945C26.2685 25.7158 26.3235 25.3466 26.4335 25.0868C26.6259 24.6218 26.9181 24.2287 27.3099 23.9073C27.7017 23.5859 28.1931 23.4253 28.7843 23.4253C30.324 23.4253 31.0939 24.4577 31.0939 26.5227V33.8458H35.6718V25.9894C35.6718 23.9654 35.1907 22.4304 34.2283 21.3842C33.266 20.3381 31.9944 19.815 30.4134 19.815C28.6399 19.815 27.2583 20.574 26.2685 22.0919V22.133H26.2479L26.2685 22.0919V20.1432H21.6906C21.718 20.5808 21.7318 21.9415 21.7318 24.2253C21.7318 26.509 21.718 29.7158 21.6906 33.8458Z" fill="#F1413E"/>
</svg>
