<svg width="47" height="46" viewBox="0 0 47 46" fill="none" xmlns="http://www.w3.org/2000/svg">
<circle cx="23.3806" cy="22.9524" r="21.9048" stroke="#EAF2EF" stroke-width="1.90476"/>
<path d="M13.417 15.2359C13.417 14.5847 13.6449 14.0474 14.1008 13.6242C14.5566 13.2009 15.1492 12.9893 15.8785 12.9893C16.5949 12.9893 17.1744 13.1976 17.6172 13.6144C18.0731 14.0442 18.301 14.6042 18.301 15.2945C18.301 15.9197 18.0796 16.4406 17.6368 16.8574C17.1809 17.2872 16.5818 17.5021 15.8395 17.5021H15.8199C15.1036 17.5021 14.524 17.2872 14.0812 16.8574C13.6384 16.4276 13.417 15.8871 13.417 15.2359ZM13.671 32.3299V19.2799H18.008V32.3299H13.671ZM20.4109 32.3299H24.7479V25.043C24.7479 24.5871 24.8 24.2355 24.9042 23.988C25.0865 23.5452 25.3633 23.1708 25.7345 22.8647C26.1056 22.5586 26.5712 22.4056 27.1313 22.4056C28.59 22.4056 29.3193 23.3889 29.3193 25.3556V32.3299H33.6563V24.8476C33.6563 22.9201 33.2005 21.4581 32.2888 20.4618C31.3771 19.4654 30.1724 18.9673 28.6746 18.9673C26.9945 18.9673 25.6856 19.6901 24.7479 21.1358V21.1748H24.7283L24.7479 21.1358V19.2799H20.4109C20.4369 19.6966 20.45 20.9925 20.45 23.1675C20.45 25.3425 20.4369 28.3966 20.4109 32.3299Z" fill="#EAF2EF"/>
</svg>
