<svg width="203" height="176" viewBox="0 0 203 176" fill="none" xmlns="http://www.w3.org/2000/svg">
<path d="M55.8816 82.3424H25.6172C23.4386 82.3424 21.6729 80.1242 21.6729 77.3873V75.3203C21.6729 72.5835 23.4386 70.3652 25.6172 70.3652H55.8821C58.0607 70.3652 59.8264 72.5841 59.8264 75.3203V77.3873C59.8264 80.1236 58.0602 82.3424 55.8816 82.3424Z" fill="#D3EDE8"/>
<path d="M46.59 73.9293H39.9443C37.7657 73.9293 36 71.7111 36 68.9743V66.9072C36 64.1704 37.7657 61.9521 39.9443 61.9521H46.59C48.7686 61.9521 50.5343 64.171 50.5343 66.9072V68.9743C50.5343 71.7111 48.7686 73.9293 46.59 73.9293Z" fill="#D3EDE8"/>
<path d="M147.395 113.535H177.659C179.838 113.535 181.604 111.317 181.604 108.58V106.513C181.604 103.776 179.838 101.558 177.659 101.558H147.395C145.216 101.558 143.45 103.776 143.45 106.513V108.58C143.45 111.316 145.216 113.535 147.395 113.535Z" fill="#D3EDE8"/>
<path d="M156.686 105.123H163.331C165.51 105.123 167.276 102.904 167.276 100.168V98.1006C167.276 95.3637 165.51 93.1455 163.331 93.1455H156.686C154.507 93.1455 152.741 95.3637 152.741 98.1006V100.168C152.741 102.904 154.507 105.123 156.686 105.123Z" fill="#D3EDE8"/>
<path d="M165.801 176H35.3838C33.5723 176 32.1035 174.155 32.1035 171.879V170.16C32.1035 167.884 33.5723 166.039 35.3838 166.039H165.801C167.613 166.039 169.082 167.884 169.082 170.16V171.879C169.082 174.155 167.613 176 165.801 176Z" fill="#A4D8D6"/>
<path d="M143.893 168.557H57.2913C52.765 168.557 49.0957 163.947 49.0957 158.261V85.1279H152.089V158.261C152.089 163.947 148.42 168.557 143.893 168.557Z" fill="#F49600"/>
<path d="M152.089 85.1267H100.592H49.0957L95.2658 23.8666C98.1591 20.0275 103.025 20.0275 105.918 23.8666L152.089 85.1267Z" fill="#F49600"/>
<path d="M136.669 116.575H55.7004C53.8238 116.575 52.3027 114.665 52.3027 112.307V40.0408C52.3027 37.6833 53.8238 35.7725 55.7004 35.7725H136.669C138.546 35.7725 140.067 37.6833 140.067 40.0408V112.307C140.067 114.665 138.546 116.575 136.669 116.575Z" fill="#EDEDED"/>
<path d="M42.6539 44.5654H72.0539C75.089 44.5654 77.5496 41.4743 77.5496 37.6614V34.7815C77.5496 30.9686 75.089 27.8774 72.0539 27.8774H42.6539C39.6188 27.8774 37.1582 30.9686 37.1582 34.7815V37.6614C37.1582 41.4743 39.6188 44.5654 42.6539 44.5654Z" fill="white"/>
<path d="M55.6002 32.8441H64.8597C67.8948 32.8441 70.3554 29.7529 70.3554 25.9401V23.0608C70.3554 19.2479 67.8948 16.1567 64.8597 16.1567H55.6002C52.5651 16.1567 50.1045 19.2479 50.1045 23.0608V25.9401C50.1045 29.7529 52.5651 32.8441 55.6002 32.8441Z" fill="white"/>
<path opacity="0.0951" d="M147.138 118.747H66.1692C64.2925 118.747 62.7715 116.836 62.7715 114.478V42.2122C62.7715 39.8546 64.2925 37.9438 66.1692 37.9438H147.138C149.015 37.9438 150.536 39.8546 150.536 42.2122V114.478C150.536 116.836 149.015 118.747 147.138 118.747Z" fill="#F56461"/>
<path d="M144.884 121.862H63.9153C62.0386 121.862 60.5176 119.951 60.5176 117.593V45.327C60.5176 42.9694 62.0386 41.0586 63.9153 41.0586H144.884C146.761 41.0586 148.282 42.9694 148.282 45.327V117.593C148.282 119.951 146.761 121.862 144.884 121.862Z" fill="#F7F7F7"/>
<path opacity="0.0951" d="M141.075 132.938H60.1067C58.23 132.938 56.709 131.027 56.709 128.67V56.4036C56.709 54.0461 58.23 52.1353 60.1067 52.1353H141.075C142.952 52.1353 144.473 54.0461 144.473 56.4036V128.67C144.473 131.027 142.952 132.938 141.075 132.938Z" fill="#F56461"/>
<path d="M138.974 136.336H58.0051C56.1284 136.336 54.6074 134.425 54.6074 132.067V59.8011C54.6074 57.4435 56.1284 55.5327 58.0051 55.5327H138.974C140.851 55.5327 142.372 57.4435 142.372 59.8011V132.067C142.372 134.425 140.851 136.336 138.974 136.336Z" fill="white"/>
<path d="M129.953 92.2843H67.0244C66.6126 92.2843 66.2783 91.865 66.2783 91.347V90.9558C66.2783 90.4385 66.6126 90.0186 67.0244 90.0186H129.953C130.365 90.0186 130.699 90.4385 130.699 90.9558V91.347C130.699 91.865 130.365 92.2843 129.953 92.2843Z" fill="#B5BBC1"/>
<path d="M129.953 99.8365H67.0244C66.6126 99.8365 66.2783 99.4166 66.2783 98.8992V98.5081C66.2783 97.9907 66.6126 97.5708 67.0244 97.5708H129.953C130.365 97.5708 130.699 97.9907 130.699 98.5081V98.8992C130.699 99.4166 130.365 99.8365 129.953 99.8365Z" fill="#B5BBC1"/>
<path d="M129.953 107.388H67.0244C66.6126 107.388 66.2783 106.968 66.2783 106.451V106.059C66.2783 105.542 66.6126 105.122 67.0244 105.122H129.953C130.365 105.122 130.699 105.542 130.699 106.059V106.451C130.699 106.969 130.365 107.388 129.953 107.388Z" fill="#B5BBC1"/>
<path d="M129.953 114.94H67.0244C66.6126 114.94 66.2783 114.52 66.2783 114.002V113.611C66.2783 113.094 66.6126 112.674 67.0244 112.674H129.953C130.365 112.674 130.699 113.094 130.699 113.611V114.002C130.699 114.52 130.365 114.94 129.953 114.94Z" fill="#B5BBC1"/>
<path d="M129.953 122.491H67.0244C66.6126 122.491 66.2783 122.071 66.2783 121.554V121.162C66.2783 120.645 66.6126 120.225 67.0244 120.225H129.953C130.365 120.225 130.699 120.645 130.699 121.162V121.554C130.699 122.072 130.365 122.491 129.953 122.491Z" fill="#B5BBC1"/>
<path d="M152.091 85.1279V156.114C152.091 162.986 147.655 168.559 142.184 168.559H59.0003C53.53 168.559 49.0938 162.986 49.0938 156.114V85.1279L100.592 126.987L152.091 85.1279Z" fill="#FDAD13"/>
<path opacity="0.3323" d="M138.061 96.5309V138.495C138.061 145.368 133.63 150.933 128.16 150.933H49.0938V156.114C49.0938 162.986 53.53 168.559 59.0003 168.559H142.184C147.654 168.559 152.091 162.986 152.091 156.114V85.1279L138.061 96.5309Z" fill="#FDAD13"/>
<path d="M58.9076 143.49H57.8183C56.3759 143.49 55.207 142.022 55.207 140.21V131.157C55.207 129.345 56.3759 127.876 57.8183 127.876H58.9076C60.3501 127.876 61.519 129.345 61.519 131.157V140.21C61.519 142.022 60.3501 143.49 58.9076 143.49Z" fill="#FDAD13"/>
<path d="M58.9076 125.032H57.8183C56.3759 125.032 55.207 123.564 55.207 121.752V119.344C55.207 117.532 56.3759 116.063 57.8183 116.063H58.9076C60.3501 116.063 61.519 117.532 61.519 119.344V121.752C61.519 123.563 60.3501 125.032 58.9076 125.032Z" fill="#FDAD13"/>
<path d="M79.0306 94.4848C76.4703 94.4848 74.3298 94.065 72.609 93.2256C70.9092 92.3862 69.6081 91.211 68.7057 89.7001C67.8243 88.1891 67.2892 86.4683 67.1003 84.5376C67.0793 84.2438 67.0583 83.8556 67.0373 83.3729C67.0163 82.8902 67.0058 82.3761 67.0058 81.8305C67.0058 81.2849 67.0163 80.7707 67.0373 80.288C67.0583 79.8054 67.0793 79.4276 67.1003 79.1548C67.2262 77.8327 67.5515 76.5736 68.0761 75.3774C68.6217 74.1603 69.3667 73.09 70.3111 72.1666C71.2764 71.2223 72.4411 70.4878 73.8052 69.9632C75.1902 69.4175 76.7956 69.1447 78.6213 69.1447C80.8038 69.1447 82.6401 69.3966 84.13 69.9002C85.62 70.3829 86.8267 71.0754 87.75 71.9778C88.6944 72.8801 89.3974 73.9504 89.8591 75.1886C90.3208 76.4057 90.5936 77.7278 90.6775 79.1548C90.7195 79.5955 90.7405 80.0677 90.7405 80.5713C90.7405 81.075 90.73 81.5577 90.709 82.0194C90.709 82.46 90.6985 82.8273 90.6775 83.1211C90.6146 84.1704 90.3523 85.0518 89.8906 85.7653C89.4499 86.4788 88.8728 87.0139 88.1593 87.3707C87.4667 87.7274 86.7113 87.9058 85.8928 87.9058C85.2003 87.9058 84.5917 87.8114 84.0671 87.6225C83.5424 87.4336 83.1122 87.2238 82.7765 86.9929C82.4617 86.7411 82.2099 86.5103 82.021 86.3004C81.8741 86.5522 81.6538 86.8355 81.36 87.1503C81.0871 87.4441 80.6779 87.6959 80.1323 87.9058C79.6077 88.1156 78.8837 88.2206 77.9603 88.2206C76.4074 88.2206 75.1797 87.6435 74.2773 86.4893C73.375 85.3351 72.9238 83.7716 72.9238 81.799C72.9238 79.8054 73.354 78.2315 74.2144 77.0773C75.0958 75.9231 76.3129 75.346 77.8659 75.346C78.7053 75.346 79.3663 75.4824 79.849 75.7552C80.3317 76.028 80.7304 76.3742 81.0452 76.794V76.3847C81.0452 76.1539 81.1186 75.965 81.2655 75.8181C81.4124 75.6712 81.6013 75.5978 81.8321 75.5978H83.4375C83.6684 75.5978 83.8572 75.6712 84.0041 75.8181C84.151 75.965 84.2245 76.1539 84.2245 76.3847V82.7748C84.2245 83.4464 84.3714 83.9605 84.6652 84.3173C84.959 84.674 85.3682 84.8524 85.8928 84.8524C86.3125 84.8524 86.6378 84.7475 86.8687 84.5376C87.1205 84.3068 87.2884 84.034 87.3723 83.7192C87.4772 83.3834 87.5297 83.0686 87.5297 82.7748C87.5297 82.3131 87.5402 81.7885 87.5612 81.2009C87.5822 80.5923 87.5612 79.9628 87.4982 79.3122C87.4143 77.7173 87.0785 76.3952 86.4909 75.346C85.9033 74.2757 84.98 73.4887 83.7208 72.9851C82.4617 72.4604 80.7619 72.1981 78.6213 72.1981C76.8376 72.1981 75.3581 72.5024 74.1829 73.111C73.0287 73.6986 72.1263 74.5275 71.4758 75.5978C70.8462 76.668 70.4475 77.9062 70.2796 79.3122C70.2376 79.669 70.2061 80.1726 70.1852 80.8232C70.1852 81.4737 70.1852 82.1348 70.1852 82.8063C70.2061 83.4569 70.2376 83.9815 70.2796 84.3802C70.5314 86.6047 71.3603 88.336 72.7664 89.5741C74.1724 90.8123 76.2605 91.4314 79.0306 91.4314C80.3317 91.4314 81.3704 91.3474 82.1469 91.1795C82.9444 91.0326 83.5739 90.8228 84.0356 90.55C84.5183 90.2981 84.9485 90.0358 85.3262 89.763C85.4941 89.6371 85.641 89.5322 85.7669 89.4482C85.9138 89.3643 86.0922 89.3223 86.302 89.3223H88.537C88.7469 89.3223 88.9252 89.3958 89.0721 89.5427C89.24 89.6896 89.3135 89.8889 89.2925 90.1408C89.2925 90.2247 89.2715 90.3086 89.2295 90.3926C89.2085 90.4555 89.1666 90.5185 89.1036 90.5814C88.516 91.253 87.771 91.8826 86.8687 92.4701C85.9873 93.0787 84.896 93.5614 83.5949 93.9181C82.3148 94.2959 80.7933 94.4848 79.0306 94.4848ZM78.5584 85.1672C79.3978 85.1672 80.0169 84.8944 80.4156 84.3487C80.8353 83.8031 81.0452 82.9532 81.0452 81.799C81.0452 80.6448 80.8353 79.7949 80.4156 79.2493C80.0169 78.6827 79.3978 78.3993 78.5584 78.3993C77.7609 78.3993 77.1524 78.6827 76.7326 79.2493C76.3129 79.7949 76.1031 80.6448 76.1031 81.799C76.1031 82.5125 76.187 83.1211 76.3549 83.6247C76.5438 84.1284 76.8166 84.5166 77.1733 84.7894C77.5511 85.0413 78.0128 85.1672 78.5584 85.1672Z" fill="#B5BBC1"/>
<path d="M113.621 76.1427H83.6543C83.2425 76.1427 82.9082 75.7228 82.9082 75.2054V74.8142C82.9082 74.2969 83.2425 73.877 83.6543 73.877H113.621C114.033 73.877 114.367 74.2969 114.367 74.8142V75.2054C114.367 75.7234 114.033 76.1427 113.621 76.1427Z" fill="#B5BBC1"/>
<path d="M129.406 83.6949H83.6543C83.2425 83.6949 82.9082 83.275 82.9082 82.7576V82.3665C82.9082 81.8491 83.2425 81.4292 83.6543 81.4292H129.406C129.818 81.4292 130.152 81.8491 130.152 82.3665V82.7576C130.152 83.275 129.818 83.6949 129.406 83.6949Z" fill="#B5BBC1"/>
<path opacity="0.1487" d="M164.724 147.304C170.984 139.44 170.984 126.689 164.724 118.825C158.464 110.961 148.315 110.961 142.055 118.825C135.794 126.689 135.794 139.44 142.055 147.304C148.315 155.168 158.464 155.168 164.724 147.304Z" fill="#F56461"/>
<path d="M162.621 144.031C168.881 136.167 168.881 123.416 162.621 115.552C156.361 107.688 146.211 107.688 139.951 115.552C133.691 123.416 133.691 136.167 139.951 144.031C146.211 151.895 156.361 151.895 162.621 144.031Z" fill="#FE693C"/>
<path opacity="0.3136" d="M167.316 129.789C167.316 140.913 160.139 149.93 151.284 149.93C145.802 149.93 140.963 146.471 138.077 141.185C140.656 143.405 143.77 144.704 147.13 144.704C155.979 144.704 163.156 135.687 163.156 124.571C163.156 120.35 162.122 116.438 160.355 113.198C164.563 116.823 167.316 122.902 167.316 129.789Z" fill="#FE693C"/>
<path d="M157.397 123.053C156.637 122.099 155.588 121.509 154.432 121.509C153.523 121.509 152.681 121.874 151.994 122.488C151.806 122.658 151.631 122.846 151.467 123.053C151.404 123.131 151.346 123.211 151.288 123.289C151.23 123.211 151.172 123.131 151.109 123.053C150.944 122.846 150.77 122.658 150.581 122.488C149.895 121.874 149.053 121.509 148.144 121.509C146.988 121.509 145.938 122.099 145.179 123.053C144.419 124.007 143.95 125.319 143.95 126.771C143.95 127.913 144.24 128.971 144.734 129.84L145.701 131.055L151.287 138.073L156.873 131.055L157.841 129.84C158.334 128.971 158.624 127.913 158.624 126.771C158.625 125.319 158.156 124.007 157.397 123.053Z" fill="white"/>
<path d="M138.851 130.953C138.842 130.953 138.834 130.953 138.826 130.953C137.998 130.936 137.337 130.083 137.348 129.042C137.406 123.597 140.148 113.252 150.101 113.083C150.108 113.083 150.115 113.083 150.122 113.083C150.942 113.083 151.613 113.911 151.624 114.946C151.635 115.988 150.971 116.845 150.142 116.859C140.65 117.02 140.361 128.607 140.353 129.099C140.337 130.128 139.668 130.953 138.851 130.953Z" fill="#FE693C"/>
<path d="M6.86153 139.104H33.2995C36.0287 139.104 38.2416 136.325 38.2416 132.896V130.307C38.2416 126.878 36.0292 124.099 33.2995 124.099H6.86153C4.13233 124.099 1.91992 126.878 1.91992 130.307V132.896C1.91992 136.325 4.13233 139.104 6.86153 139.104Z" fill="#CFB1B1"/>
<path d="M13.9167 128.565H22.2431C24.9723 128.565 27.1852 125.786 27.1852 122.357V119.767C27.1852 116.339 24.9728 113.56 22.2431 113.56H13.9167C11.1875 113.56 8.97461 116.339 8.97461 119.767V122.357C8.97461 125.785 11.187 128.565 13.9167 128.565Z" fill="#CFB1B1"/>
<path d="M4.94161 136.962H31.3796C34.1088 136.962 36.3212 134.183 36.3212 130.754V128.165C36.3212 124.737 34.1088 121.957 31.3796 121.957H4.94161C2.21241 121.957 8.38328e-08 124.736 8.38328e-08 128.165V130.754C-0.00049731 134.183 2.21241 136.962 4.94161 136.962Z" fill="white"/>
<path d="M11.9963 126.422H20.3227C23.0519 126.422 25.2648 123.642 25.2648 120.214V117.624C25.2648 114.196 23.0524 111.417 20.3227 111.417H11.9963C9.2671 111.417 7.05469 114.196 7.05469 117.624V120.214C7.05469 123.642 9.2671 126.422 11.9963 126.422Z" fill="white"/>
<path d="M51.309 60.4966C50.7613 60.9621 50.2117 61.4295 49.6631 61.9006" stroke="#F1413E" stroke-miterlimit="10"/>
<path d="M46.4364 64.753C42.6488 68.2335 39.1088 72.0944 36.5811 77.0139C32.9859 84.0098 31.9414 93.7737 35.8758 100.475C39.2387 106.204 45.2477 108.328 50.8767 109.14C63.9377 111.022 77.2425 107.798 89.4829 101.771C101.723 95.7433 112.996 86.9872 123.78 77.5419C128.745 73.1942 133.681 68.6502 137.845 63.0953C142.51 56.8711 144.627 48.913 147.403 41.1767C148.335 38.5785 149.168 35.1806 147.554 33.1773C146.675 32.0857 145.312 31.8426 144.089 32.0669C141.66 32.5137 139.478 34.6757 138.567 37.5388C137.655 40.4018 138.048 43.8579 139.562 46.2855C141.648 49.6303 145.467 50.6644 148.777 49.7915C152.087 48.9186 154.983 46.4573 157.64 43.8285C163.264 38.2642 168.255 31.6939 172.422 24.3818" stroke="#F1413E" stroke-miterlimit="10" stroke-dasharray="7.93 7.93"/>
<path d="M173.549 22.345C173.921 21.6551 174.285 20.959 174.643 20.2573" stroke="#F1413E" stroke-miterlimit="10"/>
<path d="M157.411 46.2506L168.715 32.9656L162.35 30.7461L157.411 46.2506Z" fill="#F56461"/>
<path d="M157.483 26.76L157.41 46.2504L162.687 31.089L194.097 0L157.214 25.6115L157.483 26.76Z" fill="#F56461"/>
<path d="M148.294 21.2768L157.602 26.6399L194.097 0.000488281L148.348 19.884C147.838 20.1052 147.804 20.9943 148.294 21.2768Z" fill="#F1413E"/>
<path d="M194.097 0L162.687 31.089L174.741 38.4173C175.136 38.6572 175.611 38.4797 175.837 38.0086L194.097 0Z" fill="#F1413E"/>
<path d="M154.944 20.2284L176.535 9.84521" stroke="#F1413E" stroke-width="3" stroke-miterlimit="10" stroke-linecap="round"/>
<path opacity="0.4972" d="M31.3931 68.9378C31.3931 70.8705 30.1461 72.437 28.6072 72.437C27.0683 72.437 25.8213 70.8705 25.8213 68.9378C25.8213 67.0051 27.0683 65.438 28.6072 65.438C30.1461 65.438 31.3931 67.0051 31.3931 68.9378Z" fill="white"/>
<path opacity="0.4972" d="M86.7466 21.5506C86.7466 23.4833 85.4991 25.0504 83.9607 25.0504C82.4223 25.0504 81.1748 23.4839 81.1748 21.5506C81.1748 19.6173 82.4218 18.0508 83.9607 18.0508C85.4991 18.0514 86.7466 19.6179 86.7466 21.5506Z" fill="white"/>
<path opacity="0.4972" d="M42.6646 147.916C42.6646 149.848 41.4176 151.416 39.8787 151.416C38.3397 151.416 37.0928 149.848 37.0928 147.916C37.0928 145.983 38.3397 144.416 39.8787 144.416C41.4176 144.416 42.6646 145.983 42.6646 147.916Z" fill="white"/>
<path opacity="0.4972" d="M18.8855 87.5946C21.8814 87.5946 24.3101 84.5436 24.3101 80.78C24.3101 77.0164 21.8814 73.9653 18.8855 73.9653C15.8896 73.9653 13.4609 77.0164 13.4609 80.78C13.4609 84.5436 15.8896 87.5946 18.8855 87.5946Z" fill="white"/>
<path opacity="0.4972" d="M179.47 119.907C181.178 117.762 181.178 114.282 179.47 112.136C177.762 109.991 174.992 109.991 173.284 112.136C171.576 114.282 171.576 117.762 173.284 119.907C174.992 122.053 177.762 122.053 179.47 119.907Z" fill="white"/>
<path opacity="0.4972" d="M179.52 129.866C179.52 131.974 178.159 133.683 176.481 133.683C174.803 133.683 173.442 131.974 173.442 129.866C173.442 127.758 174.803 126.049 176.481 126.049C178.159 126.049 179.52 127.758 179.52 129.866Z" fill="white"/>
<path opacity="0.3323" d="M51.1006 93.04L100.493 134.448L147.682 97.0672" stroke="#FDAD13" stroke-width="2" stroke-miterlimit="10" stroke-linecap="round" stroke-linejoin="round"/>
<path d="M196.676 100.718H164.964C161.69 100.718 159.036 97.3837 159.036 93.2709V90.1648C159.036 86.052 161.69 82.7178 164.964 82.7178H196.676C199.95 82.7178 202.604 86.052 202.604 90.1648V93.2709C202.604 97.3837 199.95 100.718 196.676 100.718Z" fill="#CFB1B1"/>
<path d="M182.711 88.0754H172.724C169.45 88.0754 166.796 84.7411 166.796 80.6283V77.5222C166.796 73.4094 169.45 70.0752 172.724 70.0752H182.711C185.985 70.0752 188.639 73.4094 188.639 77.5222V80.6283C188.639 84.7411 185.985 88.0754 182.711 88.0754Z" fill="#CFB1B1"/>
<path d="M193.435 97.5031H161.723C158.449 97.5031 155.795 94.1689 155.795 90.0561V86.9499C155.795 82.8371 158.449 79.5029 161.723 79.5029H193.435C196.709 79.5029 199.363 82.8371 199.363 86.9499V90.0561C199.363 94.1689 196.709 97.5031 193.435 97.5031Z" fill="white"/>
<path d="M179.471 84.8605H169.484C166.21 84.8605 163.556 81.5263 163.556 77.4135V74.3074C163.556 70.1946 166.21 66.8604 169.484 66.8604H179.471C182.745 66.8604 185.399 70.1946 185.399 74.3074V77.4135C185.399 81.5263 182.745 84.8605 179.471 84.8605Z" fill="white"/>
<path d="M166.797 79.0751C166.797 79.0751 164.461 71.0144 171.374 69.6929" stroke="white" stroke-width="4" stroke-miterlimit="10" stroke-linecap="round"/>
<path d="M53.4843 28.8568C53.4843 28.8568 51.1486 20.7962 58.0614 19.4746" stroke="white" stroke-width="4" stroke-miterlimit="10" stroke-linecap="round"/>
<path d="M11.0048 123.253C11.0048 123.253 8.66908 115.192 15.5819 113.871" stroke="white" stroke-width="4" stroke-miterlimit="10" stroke-linecap="round"/>
</svg>
