<svg width="77" height="78" viewBox="0 0 77 78" fill="none" xmlns="http://www.w3.org/2000/svg">
<path d="M58.5731 17.7021L54.5034 12.2025C54.2416 11.8535 53.9009 11.5717 53.5088 11.3804C53.1167 11.1892 52.6847 11.0939 52.2485 11.1026H25.3003C24.9032 11.1026 24.5106 11.1886 24.1498 11.3547C23.789 11.5209 23.4686 11.7632 23.2104 12.065L18.4807 17.5647C18.0746 18.0704 17.8603 18.7035 17.8758 19.3521V39.3983C17.883 44.1874 19.7888 48.7785 23.1752 52.1649C26.5619 55.5516 31.1527 57.4572 35.9421 57.4646H41.0568C45.8461 57.4572 50.437 55.5516 53.8236 52.1649C57.21 48.7785 59.1159 44.1874 59.1231 39.3983V19.3521C59.1231 18.757 58.93 18.1781 58.5731 17.7021Z" fill="#FFCC80"/>
<path d="M76.3931 72.6432L65.3938 58.8941C65.0749 58.4874 64.6478 58.1786 64.1614 58.0037C63.6749 57.8286 63.1492 57.7942 62.644 57.9042L38.5006 63.3488L14.3572 57.8492C13.8521 57.7392 13.3262 57.7736 12.8399 57.9487C12.3535 58.1236 11.9263 58.4324 11.6073 58.8391L0.608055 72.5882C0.288883 72.9908 0.0888061 73.4745 0.0304824 73.9849C-0.0278413 74.495 0.0579255 75.0116 0.278076 75.4755C0.493002 75.9537 0.840168 76.3607 1.27865 76.6481C1.71714 76.9354 2.22866 77.0916 2.75292 77.0979H74.2483C74.7666 77.0966 75.2739 76.9486 75.7117 76.6712C76.1497 76.394 76.5004 75.9986 76.7231 75.5305C76.9434 75.0666 77.0289 74.5499 76.9706 74.0399C76.9123 73.5295 76.7124 73.0458 76.3931 72.6432Z" fill="#F1413E"/>
<path d="M75.0451 11.1024L39.2974 0.103139C38.7747 -0.0343796 38.2253 -0.0343796 37.7025 0.103139L1.95488 11.1024C1.37032 11.2789 0.861167 11.645 0.507651 12.1429C0.154161 12.6408 -0.02356 13.2422 0.00250833 13.8522C-0.0203152 14.4694 0.165297 15.0763 0.529456 15.5752C0.893587 16.074 1.41509 16.4357 2.00988 16.6021L37.7575 26.5013C38.2415 26.6482 38.7585 26.6482 39.2424 26.5013L74.9901 16.6021C75.5849 16.4357 76.1063 16.074 76.4706 15.5752C76.8347 15.0763 77.0203 14.4694 76.9975 13.8522C77.0236 13.2422 76.8457 12.6408 76.4923 12.1429C76.1387 11.645 75.6297 11.2789 75.0451 11.1024Z" fill="#F1413E"/>
<path d="M25.3565 11.1021C24.9594 11.102 24.5667 11.188 24.2059 11.3542C23.8452 11.5203 23.5248 11.7626 23.2666 12.0645L18.5369 17.5641C18.1109 18.0622 17.8769 18.6961 17.877 19.3515V39.3977C17.8842 44.1871 19.79 48.7779 23.1764 52.1646C26.5631 55.551 31.1539 57.4569 35.9433 57.464H38.5006V11.1021H25.3565Z" fill="#FFE0B2"/>
<path d="M14.3572 57.8492C13.8521 57.7392 13.3262 57.7736 12.8399 57.9487C12.3535 58.1236 11.9263 58.4324 11.6073 58.8391L0.608055 72.5882C0.288883 72.9908 0.0888061 73.4745 0.0304824 73.9849C-0.0278413 74.495 0.0579255 75.0116 0.278076 75.4755C0.493002 75.9537 0.840168 76.3607 1.27865 76.6481C1.71714 76.9354 2.22866 77.0916 2.75292 77.0979H38.5006V63.3488L14.3572 57.8492Z" fill="#F56461"/>
<path d="M37.7025 0.103393L1.95488 11.1027C1.37032 11.2792 0.861168 11.6453 0.507651 12.1432C0.154161 12.6411 -0.02356 13.2424 0.00250833 13.8525C-0.0203152 14.4697 0.165297 15.0766 0.529456 15.5754C0.893587 16.0743 1.41509 16.436 2.00988 16.6023L37.7575 26.5016C38.0034 26.5418 38.2542 26.5418 38.5 26.5016V0.103393C38.2357 0.0612387 37.9668 0.0612387 37.7025 0.103393Z" fill="#F56461"/>
</svg>
