<svg width="47" height="46" viewBox="0 0 47 46" fill="none" xmlns="http://www.w3.org/2000/svg">
<path d="M23.3735 12.9893C18.0338 12.9893 13.7031 17.3199 13.7031 22.6596C13.7031 27.9993 18.0338 32.3299 23.3735 32.3299C28.7132 32.3299 33.0438 27.9993 33.0438 22.6596C33.0438 17.3199 28.7132 12.9893 23.3735 12.9893ZM24.1513 30.6061C24.1092 30.6061 24.0672 30.6061 24.0041 30.6271V26.0652C25.0973 26.0442 26.0854 26.0232 26.9893 25.9601C26.1905 28.4197 24.6979 30.0595 24.1513 30.6061ZM22.5956 30.6061C22.028 30.0385 20.5564 28.3987 19.7576 25.9601C20.6405 26.0232 21.6496 26.0652 22.7428 26.0652V30.6271C22.7007 30.6271 22.6587 30.6061 22.5956 30.6061ZM15.3849 22.6596C15.3849 22.134 15.448 21.6085 15.5321 21.1039C15.9946 21.0198 16.8775 20.8937 18.1178 20.7676C18.0127 21.3772 17.9497 22.0079 17.9497 22.6806C17.9497 23.3533 18.0127 23.984 18.0968 24.5726C16.8775 24.4465 15.9736 24.3204 15.5111 24.2363C15.448 23.7107 15.3849 23.1851 15.3849 22.6596ZM19.232 22.6596C19.232 21.9448 19.3161 21.2721 19.4423 20.6414C20.4093 20.5784 21.5025 20.5153 22.7428 20.5153V24.8039C21.5235 24.7829 20.4093 24.7408 19.4212 24.6567C19.3161 24.0471 19.232 23.3744 19.232 22.6596ZM24.1303 14.7131C24.6979 15.2807 26.1484 16.9625 26.9683 19.3591C26.0854 19.296 25.0973 19.2539 24.0041 19.2539V14.6921C24.0462 14.6921 24.0882 14.7131 24.1303 14.7131ZM22.7428 14.6921V19.2539C21.6496 19.275 20.6616 19.296 19.7786 19.3591C20.5775 16.9625 22.049 15.2807 22.5956 14.7131C22.6587 14.7131 22.7007 14.6921 22.7428 14.6921ZM24.0041 24.8039V20.5153C25.2234 20.5363 26.3376 20.5784 27.3047 20.6414C27.4308 21.2721 27.5149 21.9448 27.5149 22.6596C27.5149 23.3744 27.4518 24.0471 27.3257 24.6777C26.3586 24.7408 25.2445 24.7829 24.0041 24.8039ZM28.608 20.7676C29.8484 20.8937 30.7313 21.0198 31.1938 21.1039C31.2989 21.6085 31.362 22.134 31.362 22.6596C31.362 23.1851 31.2989 23.7107 31.2148 24.2153C30.7523 24.2993 29.8694 24.4255 28.6291 24.5516C28.7342 23.942 28.7762 23.3113 28.7762 22.6386C28.7762 22.0079 28.7132 21.3562 28.608 20.7676ZM30.8154 19.7585C30.2268 19.6744 29.3859 19.5693 28.3137 19.4642C27.8092 17.6562 26.9263 16.2057 26.1905 15.1756C28.3137 15.9744 29.9955 17.6562 30.8154 19.7585ZM20.5564 15.1756C19.7996 16.1847 18.9377 17.6352 18.4332 19.4432C17.3821 19.5272 16.5412 19.6534 15.9315 19.7375C16.7514 17.6562 18.4542 15.9744 20.5564 15.1756ZM15.9315 25.5607C16.5201 25.6448 17.361 25.7499 18.4122 25.855C18.9167 27.6629 19.7576 29.1135 20.5144 30.1226C18.4122 29.3027 16.7514 27.6419 15.9315 25.5607ZM26.2325 30.1226C26.9893 29.1135 27.8302 27.684 28.3348 25.876C29.3859 25.7919 30.2268 25.6658 30.8154 25.5817C29.9955 27.6419 28.3348 29.3027 26.2325 30.1226Z" fill="#EAF2EF"/>
<circle cx="23.6667" cy="22.9524" r="21.9048" stroke="#EAF2EF" stroke-width="1.90476"/>
</svg>
