<svg width="49" height="48" viewBox="0 0 49 48" fill="none" xmlns="http://www.w3.org/2000/svg">
<path d="M23.8179 13.5381C18.1816 13.5381 13.6104 18.0852 13.6104 23.6919C13.6104 29.2986 18.1816 33.8458 23.8179 33.8458C29.4543 33.8458 34.0255 29.2986 34.0255 23.6919C34.0255 18.0852 29.4543 13.5381 23.8179 13.5381ZM24.639 32.0357C24.5946 32.0357 24.5502 32.0357 24.4836 32.0578V27.2679C25.6375 27.2458 26.6805 27.2237 27.6347 27.1575C26.7914 29.7401 25.2159 31.4618 24.639 32.0357ZM22.9969 32.0357C22.3977 31.4398 20.8444 29.718 20.0012 27.1575C20.9332 27.2237 21.9983 27.2679 23.1522 27.2679V32.0578C23.1078 32.0578 23.0634 32.0357 22.9969 32.0357ZM15.3856 23.6919C15.3856 23.1401 15.4522 22.5883 15.5409 22.0585C16.0291 21.9702 16.9611 21.8378 18.2703 21.7053C18.1594 22.3454 18.0928 23.0077 18.0928 23.714C18.0928 24.4204 18.1594 25.0826 18.2481 25.7006C16.9611 25.5682 16.0069 25.4357 15.5187 25.3475C15.4522 24.7956 15.3856 24.2438 15.3856 23.6919ZM19.4464 23.6919C19.4464 22.9414 19.5352 22.2351 19.6683 21.5729C20.6891 21.5066 21.843 21.4404 23.1522 21.4404V25.9434C21.8652 25.9214 20.6891 25.8772 19.6461 25.7889C19.5352 25.1488 19.4464 24.4424 19.4464 23.6919ZM24.6168 15.3481C25.2159 15.9441 26.7471 17.71 27.6125 20.2264C26.6805 20.1602 25.6375 20.116 24.4836 20.116V15.326C24.528 15.326 24.5724 15.3481 24.6168 15.3481ZM23.1522 15.326V20.116C21.9983 20.1381 20.9554 20.1602 20.0234 20.2264C20.8666 17.71 22.4199 15.9441 22.9969 15.3481C23.0634 15.3481 23.1078 15.326 23.1522 15.326ZM24.4836 25.9434V21.4404C25.7707 21.4625 26.9468 21.5066 27.9675 21.5729C28.1007 22.2351 28.1894 22.9414 28.1894 23.6919C28.1894 24.4424 28.1229 25.1488 27.9897 25.811C26.969 25.8772 25.7929 25.9214 24.4836 25.9434ZM29.3433 21.7053C30.6526 21.8378 31.5846 21.9702 32.0727 22.0585C32.1837 22.5883 32.2503 23.1401 32.2503 23.6919C32.2503 24.2438 32.1837 24.7956 32.0949 25.3254C31.6067 25.4137 30.6747 25.5461 29.3655 25.6786C29.4765 25.0384 29.5208 24.3762 29.5208 23.6699C29.5208 23.0077 29.4543 22.3234 29.3433 21.7053ZM31.6733 20.6458C31.052 20.5575 30.1644 20.4471 29.0327 20.3367C28.5001 18.4384 27.5681 16.9153 26.7914 15.8337C29.0327 16.6725 30.8079 18.4384 31.6733 20.6458ZM20.8444 15.8337C20.0456 16.8933 19.1358 18.4163 18.6032 20.3147C17.4937 20.403 16.6061 20.5354 15.9625 20.6237C16.828 18.4384 18.6254 16.6725 20.8444 15.8337ZM15.9625 26.7381C16.5839 26.8264 17.4715 26.9367 18.581 27.0471C19.1136 28.9454 20.0012 30.4685 20.8 31.5281C18.581 30.6672 16.828 28.9234 15.9625 26.7381ZM26.8358 31.5281C27.6347 30.4685 28.5223 28.9675 29.0548 27.0692C30.1644 26.9809 31.052 26.8485 31.6733 26.7602C30.8079 28.9234 29.0548 30.6672 26.8358 31.5281Z" fill="#F1413E"/>
<path d="M47.254 24C47.254 36.6976 36.9046 47 24.127 47C11.3493 47 1 36.6976 1 24C1 11.3024 11.3493 1 24.127 1C36.9046 1 47.254 11.3024 47.254 24Z" stroke="#F1413E" stroke-width="2"/>
</svg>
