<svg width="47" height="46" viewBox="0 0 47 46" fill="none" xmlns="http://www.w3.org/2000/svg">
<circle cx="23.1901" cy="22.9524" r="21.9048" stroke="#EAF2EF" stroke-width="1.90476"/>
<path d="M15.3373 12.9893C14.829 12.9881 14.3254 13.0874 13.8555 13.2814C13.3856 13.4754 12.9587 13.7603 12.5993 14.1198C12.2398 14.4792 11.9549 14.9062 11.7609 15.376C11.5669 15.8459 11.4676 16.3495 11.4688 16.8578V28.4621C11.4677 28.9704 11.567 29.4739 11.7611 29.9436C11.9551 30.4134 12.2401 30.8403 12.5995 31.1997C12.959 31.559 13.3859 31.8439 13.8557 32.0379C14.3255 32.2318 14.829 32.3311 15.3373 32.3299H30.8101C31.3184 32.3311 31.8219 32.2318 32.2918 32.0379C32.7616 31.8439 33.1885 31.559 33.5479 31.1997C33.9074 30.8403 34.1923 30.4134 34.3864 29.9436C34.5804 29.4739 34.6798 28.9704 34.6787 28.4621V16.8578C34.6798 16.3495 34.5806 15.8459 34.3866 15.376C34.1926 14.9062 33.9077 14.4792 33.5482 14.1198C33.1887 13.7603 32.7618 13.4754 32.2919 13.2814C31.8221 13.0874 31.3185 12.9881 30.8101 12.9893H15.3373ZM20.9545 18.6254C21.9297 18.6795 23.4363 19.4837 24.0986 19.8316C24.9137 20.2607 27.0249 21.3529 27.03 22.2199C27.0366 23.0869 24.9408 24.2039 24.1322 24.6418C23.323 25.0804 21.2447 26.2237 20.4289 25.7953C19.6138 25.3662 19.6153 23.13 19.6094 22.2637C19.6036 21.3967 19.5714 19.1606 20.3806 18.7219C20.532 18.6401 20.7293 18.6123 20.9545 18.6254Z" fill="#EAF2EF"/>
</svg>
