<svg width="49" height="48" viewBox="0 0 49 48" fill="none" xmlns="http://www.w3.org/2000/svg">
<path d="M47.6402 24C47.6402 36.6976 37.2909 47 24.5132 47C11.7356 47 1.38623 36.6976 1.38623 24C1.38623 11.3024 11.7356 1 24.5132 1C37.2909 1 47.6402 11.3024 47.6402 24Z" stroke="#F1413E" stroke-width="2"/>
<path d="M16.2241 13.5381C15.6875 13.5369 15.156 13.6411 14.66 13.8448C14.164 14.0485 13.7134 14.3477 13.3339 14.7251C12.9545 15.1026 12.6538 15.5508 12.449 16.0442C12.2442 16.5376 12.1394 17.0663 12.1406 17.6001V29.7845C12.1395 30.3182 12.2444 30.8469 12.4492 31.3402C12.654 31.8335 12.9548 32.2817 13.3342 32.659C13.7136 33.0364 14.1642 33.3355 14.6602 33.5391C15.1561 33.7428 15.6876 33.847 16.2241 33.8458H32.5565C33.0931 33.847 33.6245 33.7428 34.1205 33.5391C34.6164 33.3355 35.067 33.0364 35.4464 32.659C35.8259 32.2817 36.1266 31.8335 36.3314 31.3402C36.5363 30.8469 36.6411 30.3182 36.64 29.7845V17.6001C36.6412 17.0663 36.5364 16.5376 36.3317 16.0442C36.1269 15.5508 35.8261 15.1026 35.4467 14.7251C35.0673 14.3477 34.6166 14.0485 34.1206 13.8448C33.6247 13.6411 33.0931 13.5369 32.5565 13.5381H16.2241ZM22.1534 19.4561C23.1827 19.5129 24.7731 20.3572 25.4722 20.7226C26.3325 21.1731 28.561 22.3199 28.5664 23.2302C28.5733 24.1406 26.3611 25.3134 25.5076 25.7732C24.6534 26.2337 22.4597 27.4342 21.5986 26.9844C20.7382 26.5339 20.7397 24.1859 20.7335 23.2763C20.7274 22.366 20.6934 20.0179 21.5476 19.5574C21.7074 19.4714 21.9157 19.4423 22.1534 19.4561Z" fill="#F1413E"/>
</svg>
